Coordinates
version=1
nRows=20
nColumns=34
inDegrees=yes

Units are S.I. units (second, meters, Newtons, ...)
If the header above contains a line with 'inDegrees', this indicates whether rotational values are in degrees (yes) or radians (no).

endheader
time	pelvis_tilt	pelvis_list	pelvis_rotation	pelvis_tx	pelvis_ty	pelvis_tz	hip_flexion_r	hip_adduction_r	hip_rotation_r	knee_angle_r	ankle_angle_r	subtalar_angle_r	mtp_angle_r	hip_flexion_l	hip_adduction_l	hip_rotation_l	knee_angle_l	ankle_angle_l	subtalar_angle_l	mtp_angle_l	lumbar_extension	lumbar_bending	lumbar_rotation	arm_flex_r	arm_add_r	arm_rot_r	elbow_flex_r	pro_sup_r	arm_flex_l	arm_add_l	arm_rot_l	elbow_flex_l	pro_sup_l
      0.73333330	     26.45503438	    -11.41484724	    -28.16661512	      0.37240933	      1.05967487	     -0.80968511	    -30.00000025	      2.18339645	      7.04749183	      1.65817966	     -9.34174282	    -35.00000000	      0.00000000	    -30.00000025	      3.97421934	     19.02413881	      5.69591898	     -4.95017254	    -35.00000000	      0.00000000	    -64.61425178	      3.35650529	     -1.13448859	     14.97601523	      0.57061604	    -17.10134478	     28.51641402	    106.50887455	     17.44122087	      2.42082383	     -3.50107522	     32.44928763	    101.89615572
      0.75000000	     26.46294207	    -11.45434948	    -28.27531032	      0.37228289	      1.05660624	     -0.80848021	    -30.00000025	      2.17591591	      7.04848270	      1.62234973	     -9.30661703	    -35.00000000	      0.00000000	    -30.00000025	      3.97825615	     19.00894996	      5.75129217	     -4.91066461	    -35.00000000	      0.00000000	    -64.61267302	      3.38964781	     -1.21534597	     14.81101341	      0.50719068	    -17.08695546	     28.44685146	    106.53504945	     17.47860617	      2.36774132	     -3.50448361	     32.45584594	    101.91855469
      0.76666670	     26.43147052	    -11.52607682	    -28.42901442	      0.37324116	      1.05390619	     -0.80617741	    -30.00000025	      2.21645140	      7.05840616	      1.48242870	     -9.15828399	    -35.00000000	      0.00000000	    -30.00000025	      3.93856272	     18.86806363	      5.77331038	     -4.64198804	    -35.00000000	      0.00000000	    -64.39857328	      3.32905758	     -1.20858562	     14.78737412	      0.37400907	    -16.94337864	     28.41090216	    106.65696497	     17.43548954	      2.20023182	     -3.49968233	     32.42788819	    102.01747561
      0.78333330	     26.41246230	    -11.62264977	    -28.59763033	      0.37514067	      1.05207567	     -0.80329091	    -30.00000025	      2.26987413	      7.00786359	      1.36679998	     -9.13853990	    -35.00000000	      0.00000000	    -30.00000025	      3.91057192	     18.87469118	      5.82732019	     -4.60653397	    -35.00000000	      0.00000000	    -64.35157915	      3.29913839	     -1.21289557	     14.88802964	      0.35614462	    -16.89456658	     28.44349605	    106.68869377	     17.49364412	      2.20577349	     -3.48788833	     32.43959274	    102.04286987
      0.80000000	     26.36702855	    -11.73179183	    -28.76614622	      0.37757468	      1.05059904	     -0.80040041	    -30.00000025	      2.35318797	      6.89400787	      1.21695880	     -9.13048181	    -35.00000000	      0.00000000	    -30.00000025	      3.85411303	     18.81630725	      5.84904834	     -4.53998251	    -35.00000000	      0.00000000	    -64.30070479	      3.22452951	     -1.14107568	     15.16403096	      0.29490340	    -16.82492999	     28.54522844	    106.72928860	     17.53383049	      2.15716335	     -3.48172458	     32.43303033	    102.07357953
      0.81666670	     26.29152251	    -11.84239203	    -28.92056217	      0.37971420	      1.04965550	     -0.79802338	    -30.00000025	      2.46076942	      6.75907058	      1.11803054	     -9.14964200	    -35.00000000	      0.00000000	    -30.00000025	      3.77562976	     18.69858343	      5.89421552	     -4.47367754	    -35.00000000	      0.00000000	    -64.28813890	      3.15118305	     -1.04603414	     15.46058391	      0.22891821	    -16.73342767	     28.66394777	    106.77769564	     17.54722085	      2.10387337	     -3.47138223	     32.40917722	    102.10872636
      0.83333330	     26.20100027	    -12.17059136	    -29.18955530	      0.38033144	      1.04873419	     -0.79624995	    -30.00000025	      2.71647373	      6.83170200	      1.28631247	     -9.21747859	    -35.00000000	      0.00000000	    -30.00000025	      3.57557809	     17.93465159	      6.24318432	     -4.30003670	    -35.00000000	      0.00000000	    -64.50056296	      3.12773049	     -0.53096228	     15.46810738	     -0.64139138	    -13.05616927	     29.35248619	    108.88457288	     17.73935415	      2.06610903	     -2.83266325	     32.21378137	    103.64217393
      0.85000000	     26.11471306	    -12.20296974	    -29.29254487	      0.38009013	      1.04772551	     -0.79466884	    -30.00000025	      2.79861457	      6.74545453	      1.32083561	     -9.21527540	    -35.00000000	      0.00000000	    -30.00000025	      3.51794644	     17.91933980	      6.37113291	     -4.30099382	    -35.00000000	      0.00000000	    -64.33521621	      3.03378251	     -0.49122731	     15.71852072	     -0.68510143	    -13.06094637	     29.43552557	    108.89824194	     17.77729671	      1.98669098	     -2.84702899	     32.21895035	    103.65894903
      0.86666670	     26.00898913	    -12.25046964	    -29.43028122	      0.37943709	      1.04719593	     -0.79286083	    -30.00000025	      2.89565554	      6.63840566	      1.46765976	     -9.20757079	    -35.00000000	      0.00000000	    -30.00000025	      3.44513012	     17.80308284	      6.57002581	     -4.30748810	    -35.00000000	      0.00000000	    -64.13781200	      2.92032225	     -0.43019160	     15.95386564	     -0.69604468	    -13.05260109	     29.52695123	    108.91585789	     17.79878577	      1.86828703	     -2.86622498	     32.21677284	    103.67787615
      0.88333330	     26.01665668	    -12.50684064	    -29.70589500	      0.37803103	      1.04746250	     -0.79118937	    -30.00000025	      3.03990588	      6.44882876	      2.12340282	     -9.08905094	    -35.00000000	      0.00000000	    -30.00000025	      3.36263017	     16.76625257	      7.30469965	     -4.17484362	    -35.00000000	      0.00000000	    -64.04821006	      2.71855548	     -0.43017057	     16.01080843	     -0.59407275	    -12.95197312	     29.55808166	    109.03149842	     17.68494005	      1.63622624	     -2.89041050	     32.14145095	    103.79280803
      0.90000000	     25.94702289	    -12.63283681	    -29.99891260	      0.37629336	      1.04795166	     -0.79000000	    -30.00000025	      3.09077865	      6.44204664	      2.57111194	     -8.84022111	    -35.00000000	      0.00000000	    -30.00000025	      3.34919772	     16.22344776	      7.81257871	     -3.94731886	    -35.00000000	      0.00000000	    -63.96082970	      2.53390752	     -0.33159284	     16.10451492	     -0.63568372	    -12.84225212	     29.54537699	    109.15805757	     17.68991426	      1.51677229	     -2.91833518	     32.16239339	    103.91185339
      0.91666670	     25.81670874	    -12.73695355	    -30.31907725	      0.37472566	      1.04815530	     -0.78925585	    -30.00000025	      3.13519843	      6.46214914	      2.91270846	     -8.58400444	    -35.00000000	      0.00000000	    -30.00000025	      3.32806337	     15.72954335	      8.21874069	     -3.69556427	    -35.00000000	      0.00000000	    -63.85454994	      2.35249073	     -0.19962748	     16.05757571	     -0.66657489	    -12.71535355	     29.43257019	    109.29523046	     17.71158189	      1.42033424	     -2.95828274	     32.22997641	    104.03724687
      0.93333330	     25.60766112	    -12.70159328	    -30.54292551	      0.37489592	      1.04724921	     -0.78833147	    -30.00000025	      3.14396745	      6.43256382	      2.97866299	     -8.55406197	    -35.00000000	      0.00000000	    -30.00000025	      3.32886311	     15.73949573	      8.32202089	     -3.67447376	    -35.00000000	      0.00000000	    -63.82098242	      2.36808876	     -0.21601080	     16.00610248	     -0.66884808	    -12.70666288	     29.40574507	    109.30607456	     17.77634466	      1.38429759	     -2.96842839	     32.25843890	    104.04652277
      0.95000000	     25.38457488	    -12.70296322	    -30.82698778	      0.37698611	      1.04504896	     -0.78654402	    -30.00000025	      3.16206821	      6.41256864	      3.03306528	     -8.49537685	    -35.00000000	      0.00000000	    -30.00000025	      3.34015789	     15.71174790	      8.48663479	     -3.60878415	    -35.00000000	      0.00000000	    -63.77051778	      2.35732831	     -0.22230393	     15.88857615	     -0.67750580	    -12.69678289	     29.35464968	    109.31981440	     17.79472568	      1.30327838	     -2.98829915	     32.28072066	    104.05738464
      0.96666670	     25.21035211	    -12.91174623	    -31.39213310	      0.38069793	      1.04239533	     -0.78290599	    -30.00000025	      3.23665179	      6.88789211	      3.48204582	     -7.84065655	    -35.00000000	      0.00000000	    -30.00000025	      3.33085413	     14.74428672	      9.08429329	     -2.71018864	    -35.00000000	      0.00000000	    -63.10849974	      1.88405893	      0.07297058	     15.39022663	     -0.70290324	    -12.55310451	     29.04827306	    109.45747919	     17.26253055	      1.14058736	     -3.07852419	     32.36564399	    104.17218540
      0.98333330	     25.00978864	    -13.22949930	    -31.97825553	      0.38578232	      1.04174541	     -0.77869460	    -30.00000025	      3.38985220	      7.38996656	      3.98644146	     -7.05621312	    -35.00000000	      0.00000000	    -30.00000025	      3.27192453	     13.96552407	      9.74725956	     -2.14123213	    -35.00000000	      0.00000000	    -63.32917395	      1.66890988	      0.63581935	     15.46076922	     -0.90813653	    -12.22298407	     28.59159814	    109.75465223	     17.12216343	      1.23866833	     -3.29068802	     32.62078383	    104.42545387
      1.00000000	     25.05152478	    -13.50142337	    -32.41551311	      0.39161507	      1.04254880	     -0.77400445	    -30.00000025	      3.45050220	      7.36716187	      4.89422759	     -6.62614680	    -35.00000000	      0.00000000	    -30.00000025	      3.32506077	     13.23335926	     10.76297037	     -1.73831036	    -35.00000000	      0.00000000	    -63.61808308	      1.41968860	      0.85674088	     15.45221303	     -0.90580616	    -12.00242576	     28.36198068	    109.93703952	     17.06974042	      1.18096967	     -3.47924582	     32.71698546	    104.58097867
      1.01666670	     25.21502223	    -13.88104720	    -32.87532958	      0.39745100	      1.04249832	     -0.76940850	    -30.00000025	      3.51664651	      7.27355505	      6.10228441	     -6.00445885	    -34.99994360	      0.00000000	    -30.00000025	      3.38207818	     12.32179138	     12.09076838	     -1.37452417	    -35.00000000	      0.00000000	    -64.34059089	      1.02571158	      1.13772848	     15.62465856	     -0.94399893	    -11.78948615	     28.11744656	    110.11313958	     17.15884040	      1.15574547	     -3.69352164	     32.82904150	    104.72703599
      1.03333330	     25.46986161	    -14.23849615	    -33.29855619	      0.40248786	      1.04090093	     -0.76557019	    -30.00000025	      3.52066726	      7.05155448	      7.47109709	     -5.39234058	    -34.98534988	      0.00000000	    -29.92317336	      3.46345723	     11.26957837	     13.67736401	     -1.13174650	    -34.99797505	      0.00000000	    -65.12828084	      0.56250674	      1.42686487	     15.77595330	     -0.97205837	    -11.59586786	     27.86729461	    110.27292505	     17.26327374	      1.15083400	     -3.90874033	     32.94377032	    104.85931258
      1.05000000	     25.15741136	    -14.50727735	    -32.37929196	      0.40675922	      1.03844989	     -0.76460371	    -30.00000025	      4.42270694	      5.22104281	      7.68722321	     -1.64785214	    -29.41308611	      0.00000000	    -27.28572560	      2.33218475	      7.80537026	     19.35418960	      7.71250363	    -23.42953870	      0.00000000	    -65.61793274	      1.37212836	      0.82733580	     16.57663967	     -0.93885076	     -9.62059470	     26.93598473	    112.35942335	     16.93509795	      1.15489375	     -6.48631022	     33.96585893	    107.25622588
